<svg width="394" height="319" viewBox="0 0 394 319" fill="none" xmlns="http://www.w3.org/2000/svg">
    <path d="M63.507 130c-83.2 30.8-67.002 124.833-49.002 188.5H394V0s-2 11.5-16.496 25c-18.928 17.627-121.5 16.833-141.5 12-86.5-9-68.497 54.5-172.497 93z" fill="#F8F8F8"/>
    <path fill-rule="evenodd" clip-rule="evenodd" d="m115.251 284.027.016-.085c.544-2.545 1.637-4.943 2.561-7.365.454-1.189.652-3.6 2.135-3.968.477-.119.985-.033 1.443.145 2.646 1.026 2.475 3.517 1.56 5.767-.768 1.891-1.791 3.663-2.675 5.501-.717 1.489-1.508 3.338-3.604 2.605-1.111-.39-1.63-1.515-1.436-2.6z" fill="#FD6D0D"/>
    <path fill-rule="evenodd" clip-rule="evenodd" d="M116.043 282.058c.807.185 1.596.897 2.329 1.299 2.429 1.33 4.638 2.869 7.002 4.301 1.33.807 4.029 2.203 3.556 4.149-.656 2.707-5.226.668-6.811.18-2.643-.811-5.407-1.924-7.813-3.319-2.233-1.296-1.424-2.764-.97-4.164.245-.757.657-1.508 1.254-2.046.485-.436.972-.512 1.453-.4z" fill="#371005"/>
    <path fill-rule="evenodd" clip-rule="evenodd" d="M94.088 291.493c-.686 0-1.246-.971-1.255-2.18l-.552-76.024h6.167l-3.106 76.052c-.017 1.197-.573 2.152-1.254 2.152zM145.059 291.493c.687 0 1.246-.971 1.255-2.18l.552-76.024h-6.167l3.106 76.052c.017 1.197.574 2.152 1.254 2.152z" fill="#F2E2DD"/>
    <path fill-rule="evenodd" clip-rule="evenodd" d="M92.824 221.622h53.5a5.625 5.625 0 0 0 5.625-5.625v-3.916a5.625 5.625 0 0 0-5.625-5.625h-53.5a5.624 5.624 0 0 0-5.625 5.625v3.916a5.624 5.624 0 0 0 5.625 5.625z" fill="#798E93"/>
    <path fill-rule="evenodd" clip-rule="evenodd" d="m146.334 283.319.014-.085c.476-2.56 1.506-4.985 2.367-7.43.422-1.201.556-3.616 2.028-4.024.474-.13.985-.058 1.447.108 2.673.956 2.567 3.449 1.712 5.723-.718 1.912-1.694 3.709-2.53 5.57-.677 1.508-1.419 3.378-3.534 2.699-1.121-.359-1.669-1.471-1.504-2.561z" fill="#FD6D0D"/>
    <path fill-rule="evenodd" clip-rule="evenodd" d="M147.072 281.329c.812.165 1.62.856 2.363 1.238 2.464 1.265 4.712 2.745 7.113 4.116 1.35.77 4.084 2.095 3.664 4.052-.585 2.724-5.207.806-6.804.361-2.664-.741-5.457-1.782-7.898-3.113-2.267-1.236-1.496-2.725-1.08-4.136.225-.764.618-1.526 1.201-2.078.473-.451.958-.537 1.441-.44z" fill="#371005"/>
    <path fill-rule="evenodd" clip-rule="evenodd" d="M131.199 202.289c.833 0 14.5 15.833 13.583 24.333-.917 8.5-14.357 48.834-16.803 51.5-2.447 2.667-12.78 1.334-14.114-2.666-1.333-4 2.834-9.834 2.5-13.834-.333-4-3.968-9.333-1.567-16.5 2.401-7.166 5.567-14.666 4.067-16.5-1.5-1.833-20.834-17.333-22.834-22.833s-1.666-11.5-1.666-11.5l33.614-3.2 3.22 11.2z" fill="#B4BABE"/>
    <path fill-rule="evenodd" clip-rule="evenodd" d="M149.367 192.456s28.834 14 32.5 27.333c3.667 13.333-15.9 42.5-15.366 45.667.533 3.166-3.134 10.166-5.8 12.166-2.667 2-5.188 1.53-10.875-.291-5.688-1.822-6.617-5.868-4-11.375 2.616-5.508 3.875-15.167 3.708-19.167-.167-4 4.307-11.25 6.292-14.583 1.985-3.334-7.625-12.5-16.792-17.125-9.167-4.625-20.167-21.292-20.167-21.292l30.5-1.333z" fill="#B4BABE"/>
    <path fill-rule="evenodd" clip-rule="evenodd" d="M88.24 186.186c.04-.01.08-.031.13-.031 2.62-.189 5.14-.54 7.79-.54 1.26.011 2.5.021 3.75.181 1.861.229 3.6.04 5.451.12 2.5.119 4.97.409 7.49.42 2.57.01 5.159-.761 7.75-.98 2.27-.19 4.32-.701 6.63-.56 2.9.18 5.81.35 8.7.63 2.82.28 5.52.08 8.329-.13 2.151-.16 4.98-.4 6.821.939 1.3.941 2.379 3.17 2.72 4.7.99 4.455-7.303 4.286-9.759 3.909-3.623-.557-6.103-.49-9.262 1.231-6.75 3.679-14.379-1.397-21.282-1.748-6.759-.343-13.55 4.077-20.238 2.078-4.82-1.439-5.7-5.549-5.78-10.12-.01-.42.67-.529.76-.099z" fill="#1F3C4A"/>
    <path fill-rule="evenodd" clip-rule="evenodd" d="M117.619 100.56c-.71-1.42-1.06-3-.83-4.59.24-1.71 1.56-2.67 2.66-3.83.694-.733 1.162-1.65 1.811-2.422 2.206-2.624 5.471-4.508 8.93-4.7 2.615-.148 5.296.652 7.446 2.18 2.436 1.73 3.778 4.398 5.631 6.662.105.128.212.255.322.38.06.06.02.13-.06.14-.554.07-1.037-.22-1.442-.565a5.234 5.234 0 0 1-.626-.655c-.061-.075-.116-.137-.206-.164-.075.16.025.402-.057.55-.141.254-.567.31-.829.305-.417-.01-1.079-.095-1.353-.44.188 1.624-.284 2.983-1.207 4.31-1.35 1.94-1.29 4.138-3.12 5.839-2.11 1.96-5.36 3.62-8.181 4.17-1.669.32-4.009.73-5.899.299a.635.635 0 0 1-.22.111c-1.85.32-3.42-1.26-3.56-3.02-.08-.96.21-1.93.49-2.841.18-.589.24-1.149.3-1.719z" fill="#371005"/>
    <path fill-rule="evenodd" clip-rule="evenodd" d="M119.902 128.25c1.64.66 3.96.43 5.62 0 1.14-.28 4.19-1.86 3.09-3.58a.798.798 0 0 0-.97-.28c.21-.48.42-.95.61-1.43.4-.971.77-1.95 1.08-2.971 0-.009.01-.019.01-.04.02-.079.05-.149.07-.229.01-.07.04-.151.06-.22.01-.03.019-.051.03-.08 1.45.069 2.88-.221 4.16-1.02 2.92-1.8 4.22-4.24 5.53-7.31.81-1.891 1.45-3.78 1.76-5.731.08-.419.13-.839.16-1.269.07-.87.07-1.76-.01-2.66-.1-2.59-.98-4.86-3.33-6.72-2.38-1.89-6.58-3.3-9.66-2.61-2.101.47-4.3 1.95-5.5 3.73-.601.87-1.18 1.76-1.74 2.65 0 0-1.53-.62-2.2.43-1.63 2.55.99 7.909.99 7.909s-1.18 4.581-1.91 7.111c-.59 2.05-1.22 4.08-1.8 6.12-.03.1-.06.18-.09.269-.101 0-.2.061-.28.141-2.67 2.489 2.19 6.93 4.32 7.79z" fill="#FD6D0D"/>
    <path fill-rule="evenodd" clip-rule="evenodd" d="M124.969 121.06c.93.799 2.07 1.5 3.28 1.9.4-.971.77-1.95 1.08-2.971a.265.265 0 0 0-.05-.029c.02 0 .04-.011.06-.011.02-.079.05-.149.07-.229.01-.07.04-.151.06-.22-.49-.32-.94-.29-1.59-.48-1.09-.31-2.11-.9-2.86-1.741-.58-.659-1.69-2.29-2.32-.719-.61 1.509 1.24 3.61 2.27 4.5z" fill="#E6580B"/>
    <path fill-rule="evenodd" clip-rule="evenodd" d="M120.16 96.84a.24.24 0 0 1 .07-.12c.02-.7.84-1.63 1.17-2.04.839-1.07 2.03-2.01 3.23-2.66 1.8-.97 4.72-1.41 6.84-.76.07-.12.15-.24.24-.33.08-.09.19-.08.27-.03h.02c2.3.61 4.5 1.11 6.88 1.3 2.24.19 4.46.56 6.27 1.99 2.13 1.67 2.99 4.32 1.91 6.24 1.25 1.87.02 4.8-1.38 6.269-1.56 1.651-4.23 1.79-5.62.321-.52-.44-.96-.97-1.18-1.411-.15-.29-.76-1.819-.9-2.919-1.68-.25-3.41-1.161-4.52-2.13-1.19-1.04-2.41-2.87-2.71-4.62-.53.35-1.09.63-1.5.81-1.43.65-3.2 1.42-4.84 1.2.06.78-.04 1.61-.19 2.36-.15.73-.66 2.36-1.711 2.1-.819-.211-1.099-1.76-1.329-2.44-.23-.67-.37-1.36-.691-1.99-.189-.38-.439-.69-.329-1.14z" fill="#371005"/>
    <path fill-rule="evenodd" clip-rule="evenodd" d="M81.891 169.794c.335-5.093 1.84-10.196 2.878-15.099.43-2.028.46-4.097.84-6.117.964-5.128 1.8-11.284 4.766-15.969 3.498-5.527 9.788-7.584 14.865-11.364 1.885-1.403 4.095-2.844 6.51-3.008 2.772-.188 4.216 1.565 6.46 2.729 2.371 1.229 5.07 1.824 7.738 1.758 2.449-.062 4.852-.905 7.314-.618 14.846 1.729 19.249 10.471 25.497 22.219 2.081 3.914 4.69 7.576 5.833 11.913.073.274.14.549.207.825l.195.796c1.378 5.637 2.58 10.208-.064 15.626-.77 1.561-1.11 2.911-1.441 4.601-.209 1.05-.609 2.239-1.269 3.1-1.5 1.95-4.95 1.799-7.15 2.089-1.82.241-3.63.05-5.46.161-1.61.089-3.27.45-4.88.63-3.241.36-6.41 1.049-9.66 1.16-3.18.099-6.35.7-9.52.86-3.6.18-7.27-.011-10.88-.011-4.01 0-8.05-.319-12.05-.059-1.64.099-3.28.24-4.91.349-1.54.111-2.99-.34-4.51-.29-.37.011-.56-.25-.59-.54-1.39-.26-2.7-.829-3.96-1.51-1.63-.879-3.45-1.549-4.56-3.08-.85-1.179-1.359-2.441-1.668-3.745-.58-2.45-.692-4.926-.53-7.406z" fill="#1F3C4A"/>
    <path fill-rule="evenodd" clip-rule="evenodd" d="M243.392 296.441a2.045 2.045 0 0 0 1.53-2.454l-25.134-108.585-6.768 2.031 27.942 107.564a2.045 2.045 0 0 0 2.43 1.444zM46.842 296.441a2.046 2.046 0 0 1-1.531-2.454l25.135-108.585 6.768 2.031-27.942 107.564a2.045 2.045 0 0 1-2.43 1.444z" fill="#F2E2DD"/>
    <path fill-rule="evenodd" clip-rule="evenodd" d="M52.837 188.171h184.326c1.015 0 1.837-1.119 1.837-2.5s-.822-2.5-1.837-2.5H52.837c-1.015 0-1.837 1.119-1.837 2.5s.822 2.5 1.837 2.5z" fill="#798E93"/>
    <path fill-rule="evenodd" clip-rule="evenodd" d="M115.031 182.956h46.573l3.53-27.559c.442-3.449-1.493-6.608-4.047-6.608H122.86c-1.996 0-3.703 1.965-4.048 4.659l-3.781 29.508z" fill="#fff"/>
    <path fill-rule="evenodd" clip-rule="evenodd" d="M102.824 182.956h26.5v-3h-23.5a3 3 0 0 0-3 3z" fill="#fff"/>
    <path fill-rule="evenodd" clip-rule="evenodd" d="M140.117 163.122a2 2 0 1 0 4 0 2 2 0 0 0-4 0z" fill="#F2E2DD"/>
    <path fill-rule="evenodd" clip-rule="evenodd" d="m192.175 171.444 2.369-.161-1.035-15.171a1.188 1.188 0 0 0-2.369.162l1.035 15.17z" fill="#B4BABE"/>
    <path fill-rule="evenodd" clip-rule="evenodd" d="m188.133 176.982 4.705-.655-4.32-31.063-4.706.654 4.321 31.064z" fill="#F2E2DD"/>
    <path fill-rule="evenodd" clip-rule="evenodd" d="m193.332 175.696 1.864.199 2.396-22.555a.937.937 0 0 0-1.865-.198l-2.395 22.554z" fill="#1F3C4A"/>
    <path fill-rule="evenodd" clip-rule="evenodd" d="M187.353 182.956h9.025c.648 0 1.182-.506 1.219-1.152l.863-15.393a1.221 1.221 0 0 0-1.219-1.289h-10.752c-.7 0-1.257.589-1.218 1.289l.863 15.393a1.22 1.22 0 0 0 1.219 1.152z" fill="#371005"/>
    <path fill-rule="evenodd" clip-rule="evenodd" d="M300.32 65.334c-.336-.721-1.105-.98-1.561-1.581-.412-.544-.292-1.33-.759-1.82-.43-.448-1.04-.51-1.62-.6-1.75-.258-3.37.33-4.85 1.18.96-4.25 1.08-9.148-2.96-11.698-.9-.561-1.96-.87-2.89-1.37-1.37-.731-2.25-1.09-3.83-1.13-1.59-.03-2.89.119-4.43-.49-1.27-.491-2.46-1.01-3.86-.76-.88.159-1.72.59-2.38 1.22-1.09 1.07-.66 2.129-2.08 2.889-1.6.87-3.94 1.96-3.92 4.18.01.93.63 1.74.76 2.65.2 1.42.02 2.46.87 3.74 1.56 2.36 4.39 1.71 6.69 2.62 3.25 1.29 5.93 1.3 9.37 1.05 1.5-.12 2.96-.28 4.38-.79.9-.33 1.34-.65 2.43-.71.16-.01.3-.02.41 0-.8 1.21-.59 2.87.429 3.91.566.577 1.609.837 2.323 1.173.577.272 1.253.415 1.882.25 1.044-.28 1.325-1.103 2.519-.631 1.274.503 2.714.466 3.277-.992.25-.64.09-1.68-.2-2.29z" fill="#F2CAA9"/>
    <path fill-rule="evenodd" clip-rule="evenodd" d="M266.159 94.289s-4.31 1.375-6.443 4.875-7.387 17.954-8.387 20.5c-1 2.547-6.814 9.364-5.251 17.75 1.001 5.375 6.501 10.25 9.126 11.5 2.625 1.25 5.385 2 5.76 2s16.602-19.841 15.983-22.733c-.618-2.892-10.788-33.892-10.788-33.892z" fill="#F89554"/>
    <path fill-rule="evenodd" clip-rule="evenodd" d="M327.476 165.31s.201 3.044 2.361 5.962c2.042 2.759 5.375 1.072 4.25-3-.493-1.784-2.638-4.529-2.638-4.529s-3.58-9.926-3.698-9.859c-.172.097-5.532 3.507-5.532 3.507l5.257 7.919z" fill="#FD6D0D"/>
    <path fill-rule="evenodd" clip-rule="evenodd" d="m367.352 198.994-37.986 16.596a2.374 2.374 0 0 1-3.127-1.225l-12.923-29.577a2.375 2.375 0 0 1 1.225-3.127l37.987-16.597a2.375 2.375 0 0 1 3.127 1.225l12.922 29.578a2.374 2.374 0 0 1-1.225 3.127z" fill="#371005"/>
    <path fill-rule="evenodd" clip-rule="evenodd" d="M335.984 168.024c-.142 0-.284.029-.417.088l-7.573 3.308a1.041 1.041 0 0 0-.538 1.371l1.266 2.898c.229.525.845.769 1.372.537l7.572-3.309c.256-.111.452-.315.553-.574a1.03 1.03 0 0 0-.016-.797l-1.265-2.897a1.035 1.035 0 0 0-.954-.625zm-6.307 10.291c-.375 0-.75-.07-1.11-.212a3.023 3.023 0 0 1-1.679-1.613l-1.264-2.898a3.02 3.02 0 0 1-.046-2.327 3.025 3.025 0 0 1 1.615-1.678l7.573-3.308a3.03 3.03 0 0 1 2.328-.045 3.021 3.021 0 0 1 1.677 1.614l1.266 2.898c.325.744.34 1.57.044 2.327a3.02 3.02 0 0 1-1.615 1.677l-7.573 3.309a3.02 3.02 0 0 1-1.216.256z" fill="#371005"/>
    <path fill-rule="evenodd" clip-rule="evenodd" d="M330.143 286.348a1.233 1.233 0 0 0-.021-.082c-.675-2.471-4.131-11.363-5.174-13.69-.512-1.143-7.277 1.103-6.253 3.262.86 1.816 5.526 9.03 6.497 10.784.787 1.425 1.667 3.198 3.685 2.36 1.07-.444 1.517-1.578 1.266-2.634z" fill="#FD6D0D"/>
    <path fill-rule="evenodd" clip-rule="evenodd" d="M328.897 284.194c-.767.276-1.456 1.062-2.125 1.539-2.219 1.582-4.199 3.341-6.343 5.015-1.206.942-2.745 2.917-1.809 4.65.961 1.777 3.399.2 4.608-.413 2.778-1.405 5.476-2.911 8.036-4.687 2.088-1.447 1.167-2.712.562-4.027-.327-.712-.817-1.398-1.463-1.854-.525-.37-1.009-.386-1.466-.223z" fill="#371005"/>
    <path fill-rule="evenodd" clip-rule="evenodd" d="M280.899 196.911c.905-.492 3.604 23.613 9.268 37.633 3.788 9.376 24.441 41.235 25.746 42.787 3.085 3.666 12.747-.336 11.834-5.064-1.527-7.895-13.945-40.85-15.913-45.77-1.968-4.918-3.489-52.708-3.489-52.708s-12.976-8.854-15.946-7.378c-2.97 1.475-15.086 12.791-15.055 14.266.033 1.476 3.555 16.234 3.555 16.234z" fill="#F2E2DD"/>
    <path fill-rule="evenodd" clip-rule="evenodd" d="M269.869 70.639c.581 3.237 1.289 5.855 3.69 8.216 1.063 1.053 2.371 1.643 3.768 1.899 0 .03.02.049.02.078 0 .07.01.158.01.227 0 .078.01.157.02.236-.01.02 0 .03 0 .039.069 1.043.206 2.077.374 3.079.078.512-.453 1.309-.719 1.565-1.436 1.417 1.151 3.602 2.175 4.123 1.505.768 3.67 1.505 5.401 1.229 2.224-.354 7.861-3.541 5.844-6.523-.059-.098-.137-.177-.236-.196 0-.1-.019-.177-.029-.285-.098-2.086-.266-4.163-.384-6.258-.138-2.588-.266-7.241-.266-7.241s3.69-4.566 2.686-7.36c-.413-1.161-2.017-.905-2.017-.905a72.945 72.945 0 0 0-1.092-2.922c-.757-1.968-2.538-3.877-4.447-4.792-2.804-1.328-7.143-.905-9.839.394-2.666 1.269-4.014 3.256-4.663 5.707a13.354 13.354 0 0 0-.492 1.898c0 .02-.01.049-.01.069-.039.197-.079.384-.098.58-.02.119-.04.227-.04.345a.996.996 0 0 0-.029.236 3.88 3.88 0 0 0-.049.679c-.138 1.938.059 3.896.422 5.883z" fill="#FD6D0D"/>
    <path fill-rule="evenodd" clip-rule="evenodd" d="M281.318 83.32c-1.068.563-2.314.984-3.563 1.102a32.306 32.306 0 0 1-.384-3.086c.012-.007.034-.011.055-.017-.02-.004-.036-.02-.056-.023-.001-.081-.014-.155-.016-.236.006-.07-.006-.152-.01-.224.541-.2.966-.072 1.631-.111 1.113-.06 2.221-.4 3.125-1.041.701-.506 2.123-1.825 2.383-.182.254 1.582-1.982 3.19-3.165 3.818z" fill="#E6580B"/>
    <path fill-rule="evenodd" clip-rule="evenodd" d="m249.209 291.174.039-.076c1.127-2.3 4.414-11.256 5.17-13.691.371-1.197-6.189-3.985-6.849-1.688-.555 1.931-1.824 10.428-2.256 12.387-.351 1.589-.863 3.501 1.205 4.206 1.096.375 2.181-.181 2.691-1.138z" fill="#FD6D0D"/>
    <path fill-rule="evenodd" clip-rule="evenodd" d="M249.697 288.733c-.758-.301-1.794-.166-2.612-.251-2.711-.281-5.359-.27-8.075-.432-1.526-.09-3.988.374-4.431 2.293-.454 1.969 2.418 2.397 3.73 2.737 3.014.782 6.034 1.436 9.128 1.797 2.523.295 2.668-1.263 3.084-2.65.225-.75.311-1.589.128-2.357-.149-.625-.501-.958-.952-1.137z" fill="#371005"/>
    <path fill-rule="evenodd" clip-rule="evenodd" d="M271.286 153.364s-7.849.339-13.044 28.373c-2.851 15.385-12.294 90.336-12.163 91.427.554 4.618 8.487 6.544 11.509 2.833 1.097-1.346 30.463-89.17 30.463-89.17l4.347-25.895s-.315-7.117-3.069-8.725c-2.755-1.607-18.043 1.157-18.043 1.157zM229.558 110.391c.375.116 59.346 17.786 60.394 18.705 2.219 1.946.484 7.455-2.308 7.501-.985.017-60.22-18.112-61.227-18.698-3.431-1.994-1.58-8.966 3.141-7.508z" fill="#F2E2DD"/>
    <path fill-rule="evenodd" clip-rule="evenodd" d="M229.32 111.251c-.048-.188-.174-.388-.394-.404a1.444 1.444 0 0 0-.283.008c-.018-.001-.032-.015-.051-.013-.942.118-1.688.829-2.169 1.605-.583.942-.853 2.509-.612 3.601.129.581.541.984 1.139 1.03 1.28.099 1.786-1.367 2.021-2.364.278-1.182.668-2.22.349-3.463z" fill="#D9B597"/>
    <path fill-rule="evenodd" clip-rule="evenodd" d="M225.747 130.037c.388-.056 61.251-9.309 62.591-8.926 2.839.809 3.626 6.531 1.122 7.767-.883.436-62.18 9.387-63.341 9.288-3.955-.336-5.263-7.428-.372-8.129z" fill="#F2E2DD"/>
    <path fill-rule="evenodd" clip-rule="evenodd" d="M226.297 134.578c.017.603.274 3.161-.982 2.781-.971-.293-1.697-1.872-1.804-2.775-.111-.932-.111-2.041.339-2.897.405-.772 1.413-1.169 1.976-.318.567.856.443 2.224.471 3.209z" fill="#D9B597"/>
    <path fill-rule="evenodd" clip-rule="evenodd" d="M225.265 119.922c.38.097 59.605 16.618 60.803 17.33 1.771 1.051.145 5.836-1.532 5.501-.965-.193-60.038-16.783-61.077-17.31-2.146-1.09-.572-6.128 1.806-5.521z" fill="#F2E2DD"/>
    <path fill-rule="evenodd" clip-rule="evenodd" d="M224.342 120.677c-.762.352-1.143 1.782-1.258 2.52-.173 1.103.754 2.203 1.453.71.253-.54 1.648-4.079-.195-3.23z" fill="#D9B597"/>
    <path fill-rule="evenodd" clip-rule="evenodd" d="M284.137 82.664c2.816-.812 5.441-2.437 7.191-1.5 1.75.938 1.125 4.063 1.5 5.125.375 1.063 7.937 4.875 9.312 5.75 1.375.875 1.938 12.792 2.271 25.292.334 12.5 9 49.666 7.167 58.833-1.361 6.802-11.5 8.667-17.833 7.833-6.334-.833-9.71-1.166-17.438-1.166-7.729 0-16.396-1-18.396-4.167s5.834-80.833 6.834-82.333 9.13-6.834 9.481-7.334c.352-.5.283-4.74 1.408-6.157 1.125-1.417 5.688.637 8.503-.176z" fill="#F89554"/>
    <path fill-rule="evenodd" clip-rule="evenodd" d="M293.659 87.101s-1.579 4.063-2.454 10.063c-.875 6 .106 55.736 1.191 56.736 1.086 1 15.723-4.018 17.051-6.709 1.326-2.692-2.242-29.527-2.242-36.652s-1.5-17.299-3.5-19.15c-2-1.85-10.046-4.288-10.046-4.288zM270.989 91.389s-4.66 24.65-5.285 34.775-1.25 27.439-2.375 27.719c-1.125.281-6.125-3.094-6.25-4.219-.125-1.125 1.127-42.877 5.5-51.625 2.375-4.75 8.41-6.65 8.41-6.65z" fill="#854C3A"/>
    <path fill-rule="evenodd" clip-rule="evenodd" d="M303.706 91.389c-3.678-.54-7.125 1.775-7.625 6.9s6.375 22.875 8.375 27.25 10.625 28.25 12.875 32.75 9.569 3.732 12.125 2c3.875-2.625 3-7.75 1.5-10.875s-6.125-13.875-8.625-18.625-3.75-14.5-5.875-17.875-2.741-4.75-4.621-10.375c-1.879-5.625-4.451-10.609-8.129-11.15z" fill="#F89554"/>
    <path fill-rule="evenodd" clip-rule="evenodd" d="M322.496 160.247s1.916 4 2.833 4.584c.917.583 6.295-1.946 6.898-3.181.602-1.236-1.398-5.069-1.398-5.069l-8.333 3.666z" fill="#F89554"/>
    <path fill-rule="evenodd" clip-rule="evenodd" d="M287.578 54.084c-2.43-1.9-6.1-2.94-9.16-2.43-1.77.3-3.23 1.35-4.69 2.34-1.44.97-3.12 1.49-4.22 2.9-.68.87-1.11 1.8-.04 2.57.32.23 1.19.36 1.62.16 1 .93 3.48.63 4.52.25.789-.288 1.075-.382 1.96-.188.726.159 1.367-.034 2.027-.308.125-.05 1.497-.731 1.373-.853.56.55 1.28.989 1.82 1.159.51.17 1.11.13 1.66.12.42-.01.8-.2 1.16-.31.3.29.57.61.85.93.02.96.26 2.01.42 2.84.15.82.34 2.42 1.54 2.1.87-.23 1.51-1.32 1.66-2.13.15-.88.44-2.01.33-2.98 1.48-2.43-1.12-4.84-2.83-6.17z" fill="#F2CAA9"/>
</svg>
