<svg width="394" height="317" viewBox="0 0 394 317" fill="none" xmlns="http://www.w3.org/2000/svg">
    <path d="M58.003 82C9.837 50.667 23 28 .003 0V316.5h376.5c60.8-136.8-55.333-184.666-121-191.499-56.8-3.6-157.166-12.5-197.5-43z" fill="#F8F8F8"/>
    <path fill-rule="evenodd" clip-rule="evenodd" d="M276.07 217.042c-2.38 2.848-156.11 2.537-159.65 0-3.54-2.539-2.54-157.227 0-159.644 2.55-2.418 158.09-1.292 159.65 0 1.55 1.292 2.37 156.794 0 159.644z" fill="#F2E2DD"/>
    <path fill-rule="evenodd" clip-rule="evenodd" d="M121.499 60.572c0-.699-.57-1.266-1.27-1.266a1.266 1.266 0 1 0 1.27 1.266zM273.69 60.572c0-.699-.57-1.266-1.27-1.266-.7 0-1.26.567-1.26 1.266 0 .699.56 1.265 1.26 1.265s1.27-.566 1.27-1.265zM121.499 213.238c0-.699-.57-1.266-1.27-1.266a1.266 1.266 0 1 0 1.27 1.266zM273.69 213.238c0-.699-.57-1.266-1.27-1.266-.7 0-1.26.567-1.26 1.266 0 .699.56 1.265 1.26 1.265s1.27-.566 1.27-1.265z" fill="#371005"/>
    <path fill-rule="evenodd" clip-rule="evenodd" d="M246.739 193.657c-2.62 2.573-97.87 2.716-101 0-3.12-2.716-3.42-110.733 0-112.875 3.43-2.143 97.46-3.427 101 0 3.55 3.427 2.63 110.302 0 112.875z" fill="#fff"/>
    <path fill-rule="evenodd" clip-rule="evenodd" d="M241.611 188.983h-90.74V85.457h90.74v45.927c0 .277-.22.5-.5.5-.27 0-.5-.223-.5-.5V86.457h-88.74v101.526h88.74v-40.099c0-.276.23-.5.5-.5.28 0 .5.224.5.5v41.099z" fill="#F2E2DD"/>
    <path fill-rule="evenodd" clip-rule="evenodd" d="M196.742 166.467h-44.89c-.28 0-.5-.223-.5-.5 0-.276.22-.5.5-.5h43.89v-58.208c0-.276.23-.5.5-.5.28 0 .5.224.5.5v59.208zM196.238 95.832c-.27 0-.5-.223-.5-.5v-9.375c0-.278.23-.5.5-.5.28 0 .5.222.5.5v9.375c0 .277-.22.5-.5.5z" fill="#F2E2DD"/>
    <path fill-rule="evenodd" clip-rule="evenodd" d="M213.508 166.467h-17.27c-.27 0-.5-.223-.5-.5 0-.276.23-.5.5-.5h17.27c.27 0 .5.224.5.5 0 .277-.23.5-.5.5zM241.11 166.467h-12.77c-.28 0-.5-.223-.5-.5 0-.276.22-.5.5-.5h12.77c.28 0 .5.224.5.5 0 .277-.22.5-.5.5zM241.112 112.134h-9.19c-.27 0-.5-.223-.5-.5 0-.276.23-.5.5-.5h9.19c.28 0 .5.224.5.5 0 .277-.22.5-.5.5zM217.008 112.134h-20.77c-.27 0-.5-.223-.5-.5 0-.276.23-.5.5-.5h20.77c.27 0 .5.224.5.5 0 .277-.23.5-.5.5z" fill="#F2E2DD"/>
    <path fill-rule="evenodd" clip-rule="evenodd" d="M196.239 95.832c-.1 0-.21-.034-.3-.104l-8.49-6.529a.5.5 0 0 1 .61-.793l8.49 6.53c.22.168.26.482.09.7a.505.505 0 0 1-.4.196zM241.069 132.044a.503.503 0 0 1-.31-.103l-8.48-6.529a.509.509 0 0 1-.1-.702.512.512 0 0 1 .71-.091l8.48 6.529c.22.168.26.482.1.701a.507.507 0 0 1-.4.195zM232.579 154.914c-.15 0-.3-.067-.4-.196a.508.508 0 0 1 .1-.701l8.48-6.529a.51.51 0 0 1 .71.092c.16.218.12.533-.1.701l-8.48 6.529c-.1.07-.2.104-.31.104zM208.521 118.664c-.15 0-.3-.068-.4-.196a.497.497 0 0 1 .09-.701l8.49-6.529a.497.497 0 0 1 .7.092c.17.218.13.533-.09.701l-8.49 6.529a.503.503 0 0 1-.3.104zM213.511 166.467a.509.509 0 0 1-.31-.103l-8.49-6.53a.5.5 0 0 1 .61-.792l8.49 6.529c.22.169.26.482.09.701a.489.489 0 0 1-.39.195z" fill="#D9B597"/>
    <path fill-rule="evenodd" clip-rule="evenodd" d="m232.071 126.572-.95-.314c.2-.632.34-.971.34-.971l.93.341-.32.944z" fill="#F2E2DD"/>
    <path fill-rule="evenodd" clip-rule="evenodd" d="M230.59 130.886a.5.5 0 0 1-.49-.597c.15-.751.31-1.43.46-2.029l.93-3.717.08 5.671c0 .277-.22.503-.5.507-.05.002-.07-.003-.1-.009a.492.492 0 0 1-.38.174zm-.61 4.061c-.02 0-.03-.002-.05-.004a.498.498 0 0 1-.45-.549c.08-.721.17-1.408.27-2.059a.493.493 0 0 1 .56-.42c.13.019.24.085.32.178a.5.5 0 0 1 .46-.318c.28 0 .5.22.5.493l.03 2.054c0 .275-.22.502-.49.506a.512.512 0 0 1-.51-.493l-.01-.949c-.05.362-.09.733-.13 1.112a.508.508 0 0 1-.5.449zm1.19 3.988c-.27 0-.49-.22-.5-.494l-.02-2.053a.491.491 0 0 1 .49-.507c.29-.008.5.218.51.494l.02 2.052a.491.491 0 0 1-.49.508h-.01zm-1.42.11h-.01a.5.5 0 0 1-.49-.504c.01-.711.03-1.405.07-2.076.01-.274.22-.475.52-.471.28.015.49.252.48.527-.04.656-.06 1.334-.07 2.029a.5.5 0 0 1-.5.495zm1.48 3.997c-.28 0-.5-.22-.5-.494l-.03-2.053c0-.277.22-.503.49-.507h.01a.5.5 0 0 1 .5.494l.03 2.053c0 .276-.22.504-.5.507zm-1.34.107a.502.502 0 0 1-.5-.465c-.05-.666-.09-1.356-.11-2.068a.495.495 0 0 1 .48-.517c.25-.043.51.205.52.483.02.699.06 1.377.11 2.032a.51.51 0 0 1-.47.534l-.03.001zm.44 4.083c-.24 0-.45-.18-.49-.428-.1-.648-.19-1.334-.27-2.054a.501.501 0 0 1 .45-.552c.26-.027.52.167.55.442.06.576.13 1.129.21 1.658l-.03-1.697c0-.275.22-.503.5-.506.28 0 .5.219.5.493l.03 2.054c0 .276-.22.502-.49.506-.24.037-.39-.123-.47-.304a.488.488 0 0 1-.49.388zm.77 4.033a.505.505 0 0 1-.49-.385c-.14-.597-.29-1.277-.43-2.031a.503.503 0 0 1 .78-.505.5.5 0 0 1 .34-.143h.01c.27 0 .49.22.5.494l.02 2.054a.49.49 0 0 1-.49.506c-.04.007-.07-.004-.1-.009l-.03.006a.46.46 0 0 1-.11.013zM231.451 153.886s-.12-.34-.31-.977l.96-.291.3.949-.95.319zM215.461 158.119a19.25 19.25 0 0 0-1.88-.086h-.11c-.28 0-.5-.223-.5-.5 0-.276.22-.5.5-.5h.11c.66 0 1.31.029 1.93.088a.499.499 0 0 1-.05.998zm-5.98.261a.497.497 0 0 1-.49-.42.496.496 0 0 1 .41-.574c.68-.109 1.36-.195 2.02-.255.26-.028.52.178.55.454a.503.503 0 0 1-.46.542c-.64.057-1.29.14-1.95.247a.45.45 0 0 1-.08.006zm9.88.599a.467.467 0 0 1-.17-.029c-.17-.06-.34-.118-.51-.174a13.04 13.04 0 0 0-1.35-.366.498.498 0 0 1-.38-.595c.06-.27.32-.439.59-.382.5.108.99.24 1.45.393.19.058.36.12.54.182.26.093.39.38.3.64a.511.511 0 0 1-.47.331zm-13.77.321a.5.5 0 0 1-.16-.972c.03-.01.77-.264 1.98-.546a.498.498 0 1 1 .22.973c-1.15.27-1.87.516-1.88.518a.449.449 0 0 1-.16.027zm17.37 1.407a.481.481 0 0 1-.26-.075c-.56-.338-1.13-.652-1.71-.931a.5.5 0 1 1 .43-.901c.61.293 1.22.623 1.8.981.23.143.31.451.16.687a.481.481 0 0 1-.42.239zm3.17 2.429a.505.505 0 0 1-.35-.137 17.08 17.08 0 0 0-1.48-1.263.497.497 0 0 1-.09-.701.5.5 0 0 1 .7-.094 18.8 18.8 0 0 1 1.56 1.333.5.5 0 0 1-.34.862zm2.21 2.58a.512.512 0 0 1-.43-.236c0-.004-.26-.428-.8-1.066a.51.51 0 0 1 .07-.705c.21-.176.52-.15.7.063.59.7.87 1.164.88 1.184.15.235.08.542-.16.686a.48.48 0 0 1-.26.074zM230.8 114.869a.496.496 0 0 1-.32-.115.508.508 0 0 1-.07-.704c.72-.874 1.07-1.517 1.07-1.524a.505.505 0 0 1 .68-.208.5.5 0 0 1 .2.676c-.01.029-.39.732-1.17 1.691a.513.513 0 0 1-.39.184zm-2.93 2.712a.498.498 0 0 1-.28-.91c.52-.369 1.03-.777 1.5-1.214a.49.49 0 0 1 .7.027.5.5 0 0 1-.02.706c-.51.468-1.05.905-1.61 1.3a.514.514 0 0 1-.29.091zm-3.55 1.818c-.2 0-.4-.13-.47-.336a.501.501 0 0 1 .31-.636c.61-.211 1.2-.467 1.77-.758a.509.509 0 0 1 .68.217c.12.246.03.547-.22.672-.61.315-1.25.588-1.9.813a.531.531 0 0 1-.17.028zm-13.85.261a.55.55 0 0 1-.1-.009 28.338 28.338 0 0 1-1.99-.452.495.495 0 0 1-.34-.615c.07-.266.34-.42.61-.348.01.002.74.203 1.92.433a.5.5 0 0 1-.1.991zm9.95.569c-.25 0-.47-.19-.5-.446a.5.5 0 0 1 .45-.551c.67-.072 1.31-.172 1.93-.297.27-.057.53.119.59.389a.504.504 0 0 1-.39.59 22 22 0 0 1-2.08.315zm-5.99.001c-.01 0-.03 0-.05-.002-.71-.066-1.39-.148-2.01-.238a.5.5 0 0 1 .14-.99c.61.087 1.27.168 1.97.232.27.025.47.269.45.544a.504.504 0 0 1-.5.454zm3.11.148c-.38-.001-.76-.007-1.13-.021a.494.494 0 0 1-.48-.516c.01-.277.27-.507.51-.482.64.021 1.3.026 1.97.006.27.011.51.209.52.485 0 .276-.21.507-.49.515-.3.009-.6.013-.9.013zM186.672 91.732c-.02 0-.03 0-.05-.002a.491.491 0 0 1-.45-.543c.11-1.275.32-2.033.33-2.065a.504.504 0 0 1 .97.274c-.01.008-.2.71-.31 1.881a.495.495 0 0 1-.49.455zm.09 3.991a.49.49 0 0 1-.49-.433c-.09-.679-.15-1.368-.17-2.046 0-.277.21-.506.49-.514.27.014.51.212.51.488.02.643.07 1.295.16 1.94a.507.507 0 0 1-.5.565zm.94 3.88a.5.5 0 0 1-.47-.332c-.22-.64-.42-1.302-.58-1.965a.497.497 0 0 1 .36-.603c.27-.067.54.1.61.367.15.63.34 1.258.55 1.866a.493.493 0 0 1-.47.667zm1.76 3.58a.482.482 0 0 1-.41-.223c-.38-.563-.72-1.166-1.03-1.792a.5.5 0 0 1 .9-.438c.29.586.61 1.15.96 1.677a.503.503 0 0 1-.42.776zm2.68 2.948a.49.49 0 0 1-.31-.109c-.53-.424-1.04-.903-1.51-1.426a.5.5 0 0 1 .03-.706c.21-.184.52-.17.71.035.43.483.9.925 1.39 1.316a.49.49 0 0 1 .08.702.493.493 0 0 1-.39.188zm2.84 1.628a.52.52 0 0 1-.15-.023c-.13-.041-.6-.199-1.26-.558a.497.497 0 0 1-.21-.677.505.505 0 0 1 .68-.204c.61.326 1.01.46 1.09.484.21.065.35.26.35.478a.491.491 0 0 1-.5.5z" fill="#F2E2DD"/>
    <path fill-rule="evenodd" clip-rule="evenodd" d="M153.592 142.217h-3.92c-.27 0-.5-.223-.5-.5 0-.276.23-.5.5-.5h3.92c.28 0 .5.224.5.5 0 .277-.22.5-.5.5zM153.592 152.634h-3.92c-.27 0-.5-.223-.5-.5 0-.276.23-.5.5-.5h3.92c.28 0 .5.224.5.5 0 .277-.22.5-.5.5zM165.172 190.941c-.27 0-.5-.224-.5-.5v-3.916c0-.277.23-.5.5-.5.28 0 .5.223.5.5v3.916c0 .276-.22.5-.5.5zM175.59 190.941c-.28 0-.5-.224-.5-.5v-3.916c0-.277.22-.5.5-.5s.5.223.5.5v3.916c0 .276-.22.5-.5.5zM209.262 190.941c-.28 0-.5-.224-.5-.5v-3.916c0-.277.22-.5.5-.5s.5.223.5.5v3.916c0 .276-.22.5-.5.5zM219.68 190.941c-.28 0-.5-.224-.5-.5v-3.916c0-.277.22-.5.5-.5.27 0 .5.223.5.5v3.916c0 .276-.23.5-.5.5zM213.512 88.415c-.28 0-.5-.224-.5-.5v-3.917c0-.277.22-.5.5-.5.27 0 .5.223.5.5v3.917c0 .276-.23.5-.5.5zM223.922 88.415c-.27 0-.5-.224-.5-.5v-3.917c0-.277.23-.5.5-.5.28 0 .5.223.5.5v3.917c0 .276-.22.5-.5.5zM153.592 106.925h-3.92c-.27 0-.5-.222-.5-.5 0-.275.23-.5.5-.5h3.92c.28 0 .5.225.5.5 0 .278-.22.5-.5.5zM153.592 117.342h-3.92c-.27 0-.5-.223-.5-.5 0-.276.23-.5.5-.5h3.92c.28 0 .5.224.5.5 0 .277-.22.5-.5.5z" fill="#D9B597"/>
    <path fill-rule="evenodd" clip-rule="evenodd" d="M344.992 287.209c.01-.029.01-.057.01-.086.25-2.592.02-12.318-.13-14.906-.07-1.27-7.05-.947-6.86 1.475.17 2.035 1.89 9.973 2.18 11.991.23 1.637.43 3.639 2.65 3.571 1.17-.036 2.01-.952 2.15-2.045z" fill="#FD6D0D"/>
    <path fill-rule="evenodd" clip-rule="evenodd" d="M344.558 284.972c-.82-.086-1.84.191-2.62.474-1.76.63-3.34 1.979-4.07 2.709-1.6 1.577-1.83 2.223-1.61 3.194.32 1.411 1.03 1.799 2.41 1.771 3.16-.065 4.23-.32 5.43-.515.93-.151 1.85-.535 2.15-1.499.41-1.312.23-4.074-.45-5.283-.31-.571-.75-.8-1.24-.851z" fill="#371005"/>
    <path fill-rule="evenodd" clip-rule="evenodd" d="M305.968 289.654c.01-.028.02-.056.02-.084.63-2.528 1.95-12.134 2.17-14.716.11-1.269-7-2.617-7.16-.193-.14 2.038.44 10.751.44 12.79-.01 1.653-.1 3.662 2.11 3.916 1.17.134 2.12-.653 2.42-1.713z" fill="#FD6D0D"/>
    <path fill-rule="evenodd" clip-rule="evenodd" d="M305.928 287.124c-.82-.135-1.82.223-2.65.316-2.75.308-5.38.893-8.11 1.32-1.54.241-3.88 1.235-3.91 3.236-.02 2.053 2.92 1.856 4.3 1.911 3.16.123 6.3.119 9.45-.193 2.57-.254 2.38-1.832 2.49-3.299.06-.793-.03-1.645-.38-2.37-.28-.587-.71-.841-1.19-.921z" fill="#371005"/>
    <path fill-rule="evenodd" clip-rule="evenodd" d="M318.59 189.8s6.83 53 9.33 65.334c2.5 12.333 3.78 20.174 5.17 21.813 2.5 2.95 14 2.95 16.17-2.279.86-2.084-1.84-80.201-3-89.201-1.17-9-2.5-22.833-2.5-22.833h-31.17l6 27.166z" fill="#1F3C4A"/>
    <path fill-rule="evenodd" clip-rule="evenodd" d="M295.171 159.884s-3 32.5-2.75 50.5 2 65.532 4.25 67.516c2.25 1.984 11 3.266 15.25 0s8.63-82.6 8.63-82.6l3.37-31.916-28.75-3.5z" fill="#1F3C4A"/>
    <path fill-rule="evenodd" clip-rule="evenodd" d="M363.32 163.637s.2 3.044 2.36 5.962c2.05 2.759 5.38 1.072 4.25-3-.49-1.784-2.63-4.529-2.63-4.529s-3.58-9.926-3.7-9.859c-.17.097-5.53 3.507-5.53 3.507l5.25 7.919zM327.299 93.945c-.4 1.431-.96 2.94-2.02 3.74-1.51 1.13-3.83.42-5.49-.04-2.21-.63-4.52-2-5.9-3.859-.68-.91-1.17-2-1.06-3.17.04-.45.42-2.98 1.3-2.72-.09-.03-.32-1.12-.51-2.18-.17-.91-.32-1.81-.35-2-.01-.1-.03-.2-.04-.31v-.01l-.27.03c-.86.06-1.84 0-2.67-.22-2.58-.71-4.01-2.94-4.78-5.74-.02-.09-.05-.18-.07-.27-.01-.01-.01-.02-.02-.03-.08-.29-.15-.6-.21-.91-.01-.03-.01-.07-.03-.11-.03-.17-.07-.35-.09-.53-.54-3.01-.53-6.37-.43-9.12.02-.56.04-1.08.06-1.59.03-.59.05-1.15.06-1.63.05-1.53.28-2.66 1.8-3.31 3.91-1.68 7.44-.97 11.26.42 4.28 1.54 3.08 6.4 5.54 9.22 2.72 3.12 2.24 6.34 2.97 10.04.43 2.26.72 4.55 1.01 6.83.2 1.63 0 4.9.86 6.28.3.49-.38 1.28-.92 1.19z" fill="#FD6D0D"/>
    <path fill-rule="evenodd" clip-rule="evenodd" d="M331.24 64.972c.01-.02.01-.042.01-.063.3-1.71 1.18-2.849 1.02-4.69-.14-1.653-.81-3.236-1.71-4.612-1.79-2.706-4.78-5.014-8.08-5.36-2.53-.269-4.87-1.242-7.4-1.199-1.53.026-3.08.151-4.47.836-1.39.684-2.49 1.831-3.89 2.498-2.23 1.066-3.96 3.094-4.43 5.575-.39 1.051-.36 2.458-.04 3.21.42.953 1.46 1.591 2.26 2.206.65.51 1.44.735 2.25.774.07 1.06.44 2.11 1.14 3.227.74 1.166 1.66 2.116 2.01 3.45.19.7.24 1.407.47 2.096.4 1.238 1.09 2.231 2.06 3.094.97.862 2.2 1.388 3.17 2.232 1.26 1.088 1.96 2.255 3.65 2.648 1.86.435 3.9.71 5.74.01.81-.31 1.52-.947 1.97-1.669.74-1.194.42-2.49 1.31-3.605 1.08-1.354 2.11-2.55 2.55-4.259.43-1.63.58-3.333.44-5.014-.03-.46-.09-.928-.03-1.385z" fill="#371005"/>
    <path fill-rule="evenodd" clip-rule="evenodd" d="M306.37 66.617c-.53.104-1.12-.004-1.71-.121.02-.562.04-1.083.06-1.586.78.251 1.62.735 1.78 1.449.02.096-.03.232-.13.258z" fill="#371005"/>
    <path fill-rule="evenodd" clip-rule="evenodd" d="M308.172 67.78s1.17-1.399 2.47-.309c1.29 1.09-.01 6.095-.01 6.095l-2.04-.277-.42-5.51z" fill="#FD6D0D"/>
    <path fill-rule="evenodd" clip-rule="evenodd" d="M314.301 85.33c-.21.118-.441.255-.671.388a39.35 39.35 0 0 1-.349-1.999c-.02-.102-.031-.206-.051-.318.47-.13.91-.315 1.38-.484.31-.116 1.04-.414 1.27-.02l.031.034c.05.103.049.232.039.35-.08.974-.869 1.595-1.649 2.05z" fill="#E6580B"/>
    <path fill-rule="evenodd" clip-rule="evenodd" d="M308.1 49.29c.88-.084 1.76.065 2.63.333l.12-.037c.66-.818 1.52-1.215 3.03-2.093 2.76-1.612 5.71-1.78 8.81-1.159 9.32 1.86 15.06 12.45 9.82 20.891-.23.37-.62.76-1.01 1.151.04.13.11 2.238.01 3.236-.04 1.011-.34 2.333-2.42 3.598-1.79 1.088-4.82.301-7.79-.64-6.56-2.079-10.11-8.565-12.61-12.259-2.07-3.06-3.06-6.97-3.11-9.616-.04-2.135.69-3.23 2.52-3.405z" fill="#F89554"/>
    <path fill-rule="evenodd" clip-rule="evenodd" d="M317.842 62.678c.19.362.68.423.96.115 1.13-1.286 3.35-4.564 1.03-8.683-1.9-3.373-5.79-3.645-7.57-3.578-.43.016-.69.486-.49.87l6.07 11.276z" fill="#EB782D"/>
    <path fill-rule="evenodd" clip-rule="evenodd" d="M306.5 75.975c.01.63-.44 1.13-.99 1.49-.02-.089-.05-.179-.07-.27-.01-.01-.01-.02-.02-.029-.08-.29-.15-.6-.21-.91-.01-.03-.01-.07-.03-.11-.03-.17-.07-.35-.09-.53.23-.18.54-.36.96-.27.31.06.45.45.45.63z" fill="#fff"/>
    <path fill-rule="evenodd" clip-rule="evenodd" d="M344.87 148.144c-.14 4.39-.09 8.07.34 9.63 1.33 4.84 1.33 7.5 0 10.17-1.34 2.67-14.93 4.5-21.55 4-6.62-.5-17.29-3-21.12-3.17-3.83-.16-7-.66-8.67-3-1.66-2.33 2.73-19.28 2.05-24.66-.58-4.59-1.01-8.73-1.31-12.45-1.73-21.01.39-28.95 1.48-32.42.54-1.71 2.4-3.34 5.11-4.73.25-.139.51-.26.78-.389.01-.01.02-.01.02-.01.76-.36 1.57-.7 2.43-1.03 5.36-2.01 12.51-3.31 19.23-3.31 7.53 0 12.56.88 16.24 2.73.71.35 1.38.74 2 1.17 0 0 .02.01.07.04a17.377 17.377 0 0 1 3.57 3.4c4 5 1 26.329.83 29.999-.1 2.48-1.21 14.82-1.5 24.03z" fill="#B4BABE"/>
    <path fill-rule="evenodd" clip-rule="evenodd" d="M366.04 147.694c-.87 4.25-4.12 9-9.62 9.75-5.5.75-8.45-6.24-10-7.75-.51-.5-1.03-1.03-1.55-1.55-1.06-1.06-2.11-2.07-2.95-2.57-1.25-.75-4.47-20.89-7.42-26.699-.24-.471-.39-1.051-.47-1.721-.87-7.57 7.87-26.48 7.87-26.48s.02.01.07.04c.13.07.44.26.9.61 1.82 1.39 5.85 5.29 9.17 14.35 2.39 6.52 7.38 26.35 8.5 28.31 1.13 1.96 6.38 9.46 5.5 13.71z" fill="#B4BABE"/>
    <path fill-rule="evenodd" clip-rule="evenodd" d="M265.128 109.862s-5.22-4.851-5.28-5.176c-.06-.325-.62-3.66-2.19-4.99-1.57-1.33-7.03-3.042-7.36-.738-.22 1.552 2.37 4.211 2.97 4.634.61.424.48 1.451 1.03 2.298.54.847 1.64 1.392 1.64 1.392l4.79 6.79 4.4-4.21z" fill="#FD6D0D"/>
    <path fill-rule="evenodd" clip-rule="evenodd" d="m302.67 105.674-.671 15.52s-2.96 4.38-7.39 7.47c-.36.26-.74.51-1.12.74-5.05 3.08-12.949 5.79-17.429 4.79-4.48-1-10.64-3.66-13.27-7.03-3.25-4.17-5.5-8.51-2.13-13.64 3.38-5.12 7.089-5.08 10.929-3.75 1.86.65 5.451 3.92 7.581 2.14 2.13-1.78 7.3-9.27 10.37-12.55 4.32-4.62 9.6-7.09 11.62-7.93.45-.18.739-.29.819-.309.01-.01.02-.01.02-.01l.12 2.58.551 11.979z" fill="#B4BABE"/>
    <path fill-rule="evenodd" clip-rule="evenodd" d="M294.602 166.592s18.92-42.77 19.99-43.489c1.08-.719 17.32-1.094 17.7-.844.38.25 12.08 46.515 12.08 46.515s-11.46 6.985-12.08 7.11c-.62.125-16 2.5-19.06 1.375-3.06-1.125-16.93-7.25-17.43-7.75s-1.2-2.917-1.2-2.917z" fill="#1F3C4A"/>
    <path fill-rule="evenodd" clip-rule="evenodd" d="m318.59 123.554-4-.45-12.47-29.41-.92-2.18-.04-.08c.45-.18 2.41-1.02 3.27-1.35l14.16 33.47zM342.868 91.324l-.02.06-8.82 25.77-1.74 5.1-1.29 2.71-2.51-2.23 11.41-33.23c.71.35 1.38.74 2 1.17a7.716 7.716 0 0 1 .97.65z" fill="#1F3C4A"/>
    <path fill-rule="evenodd" clip-rule="evenodd" d="m44.129 141.713-4.7 3.152-5.54 29.075-5.1-.901s.13-30.304 1.92-35.174c1.39-3.803 4.63-4.756 4.63-4.756l8.79 8.604z" fill="#FD6D0D"/>
    <path fill-rule="evenodd" clip-rule="evenodd" d="M33.929 173.775s-.64 6.227-2.14 8.247c-2.4 3.213-7.7 2.829-6.84-.784.86-3.612 4.17-9.408 4.17-9.408s1.86-2.02 2.2-1.143c.34.878 2.61 3.088 2.61 3.088zM43.66 286.639v-.087c.14-2.599 1.79-12.187 2.31-14.725.26-1.246 7.12.095 6.57 2.462-.45 1.99-3.32 9.589-3.9 11.545-.47 1.584-.96 3.536-3.15 3.143-1.16-.207-1.85-1.235-1.83-2.338z" fill="#FD6D0D"/>
    <path fill-rule="evenodd" clip-rule="evenodd" d="M44.212 284.972c.82-.086 1.83.191 2.62.474 1.75.63 3.33 1.979 4.07 2.709 1.6 1.577 1.82 2.223 1.6 3.194-.31 1.411-1.02 1.799-2.4 1.771-3.17-.065-4.23-.32-5.43-.515-.93-.151-1.86-.535-2.16-1.499-.4-1.312-.22-4.074.45-5.283.32-.571.75-.8 1.25-.851z" fill="#371005"/>
    <path fill-rule="evenodd" clip-rule="evenodd" d="M83.07 289.654a.257.257 0 0 1-.02-.084c-.62-2.528-1.95-12.134-2.17-14.716-.11-1.269 7.01-2.617 7.16-.193.14 2.038-.44 10.751-.44 12.79.01 1.653.1 3.662-2.11 3.916-1.17.134-2.12-.653-2.42-1.713z" fill="#FD6D0D"/>
    <path fill-rule="evenodd" clip-rule="evenodd" d="M83.11 287.124c.82-.135 1.82.223 2.65.316 2.75.308 5.38.893 8.11 1.32 1.54.241 3.88 1.235 3.91 3.236.02 2.053-2.92 1.856-4.3 1.911-3.16.123-6.3.119-9.45-.193-2.57-.254-2.38-1.832-2.49-3.299-.06-.793.03-1.645.38-2.37.28-.587.71-.841 1.19-.921zM99.17 181.634s-2.5 47.25-2.75 56-1.48 40.776-2.24 42.263c-.76 1.487-14.26 1.513-17.51 0-3.25-1.513-1.5-71.513-1.5-71.513l24-26.75z" fill="#371005"/>
    <path fill-rule="evenodd" clip-rule="evenodd" d="M85.14 186.05s-13.82 45.253-16.17 53.685c-2.35 8.432-11.27 39.216-12.37 40.475-1.09 1.261-14.2-1.969-16.99-4.221-2.79-2.252 15.79-69.765 15.79-69.765l29.74-20.174z" fill="#371005"/>
    <path fill-rule="evenodd" clip-rule="evenodd" d="M70.731 99.293c.38 1.312.91 2.7 1.9 3.433 1.4 1.029 3.54.353 5.06-.094 2.04-.596 4.16-1.885 5.42-3.609.62-.85 1.06-1.856.95-2.934-.05-.421-.42-2.747-1.23-2.505.09-.03.28-1.034.45-2.012.15-.846.28-1.677.3-1.848.02-.096.03-.19.04-.295v-.009c.09.017.17.024.26.031.79.046 1.69-.019 2.46-.233 2.44-.696 3.75-2.883 4.42-5.583.01-.01 0-.018.01-.029.07-.275.14-.559.19-.847.01-.03.01-.066.02-.096.56-2.905.52-6.232.4-8.914-.02-.519-.05-1-.07-1.463-.03-.553-.05-1.062-.07-1.508-.06-1.411-.41-4.744-1.81-5.331-3.64-1.515-6.76 1.461-10.27 2.776-3.94 1.466-2.79 5.94-5.04 8.565-2.47 2.901-2 5.876-2.64 9.295-.38 2.087-.63 4.208-.87 6.316-.17 1.504.05 4.52-.73 5.806-.28.453.35 1.171.85 1.088z" fill="#FD6D0D"/>
    <path fill-rule="evenodd" clip-rule="evenodd" d="M146.239 92.282a1.15 1.15 0 0 1 1.6.294l9.5 13.796.6 2.18a.43.43 0 0 1-.67.463l-1.83-1.34-9.5-13.796a1.151 1.151 0 0 1 .3-1.597z" fill="#371005"/>
    <path fill-rule="evenodd" clip-rule="evenodd" d="M154.752 99.198c-1.15-4.015-5.97-2.622-7.7-1.5-1.73 1.12-3.94 5.727-3.94 5.727l-17.32 18.132-9.37 2.944 2.21 12.099s6.91-1.99 10.24-4.287c4.28-2.942 18.18-25.4 18.18-25.4s1.91-1.116 2.56-1.887c.65-.771.66-1.806 1.31-2.15.66-.342 4.5-1.304 3.83-3.678z" fill="#FD6D0D"/>
    <path fill-rule="evenodd" clip-rule="evenodd" d="M89.609 83.19c.03.03.43.31 1.15.445.01-.01 0-.018.01-.029.07-.275.14-.559.19-.847-.52-.085-.8-.282-.83-.295-.19-.135-.49-.09-.62.107-.14.21-.1.483.1.618z" fill="#E6580B"/>
    <path fill-rule="evenodd" clip-rule="evenodd" d="M66 72.727c-.52-3.1-.29-6.21 1.38-8.794 2.09-3.239 4.96-4.733 8.68-5.265 8.09-1.159 13.09 4.966 13.09 4.966s.47 5.666-.27 5.71c-.06.978-1.78 3.928-2.42 4.966-.66 1.081.43 2.246.11 3.482-.16.646-.2 1.3-.41 1.938-.74 2.338-3.82 2.853-5.57 4.045-.51.344-.92.806-1.38 1.205-1.05.9-2.33 1.448-3.61 1.912-1.04.374-1.76.746-2.86.338-2.42-.896-3.14-3.744-3.9-5.923-1-2.836-2.33-5.596-2.84-8.58zM89.81 73.876c.49.091 1.03-.014 1.57-.127-.02-.519-.05-1-.07-1.463-.71.238-1.48.693-1.63 1.352-.02.09.03.215.13.238z" fill="#1F3C4A"/>
    <path fill-rule="evenodd" clip-rule="evenodd" d="M88.15 74.964s-1.09-1.278-2.28-.26c-1.18 1.017.07 5.625.07 5.625l1.87-.275.34-5.09z" fill="#FD6D0D"/>
    <path fill-rule="evenodd" clip-rule="evenodd" d="M82.65 91.22c.2.107.41.232.63.352.15-.846.28-1.677.3-1.848.02-.096.03-.19.04-.295-.43-.115-.84-.282-1.27-.433-.29-.104-.96-.372-1.18-.007-.01.011-.01.021-.02.032a.585.585 0 0 0-.04.322c.08.9.82 1.465 1.54 1.876z" fill="#E6580B"/>
    <path fill-rule="evenodd" clip-rule="evenodd" d="M69.051 93.645c5.62-1.385 17.19-.562 22.41 1.688 5.21 2.25 5.96 12 6.84 20 .87 8-2.61 32-2.49 34.625.11 2.625 5.38 29.496 6.19 37.075 1.67 15.801-20.33 17.625-22.33 25.724-2 8.101-3.25 19.377-13.92 32.701-5.33 6.656-11.09 10.676-18.31 14.676-7.23 4-12.1 2.833-11.85-3.167s4.08-37.259 4.58-46.259 4.88-27.893 7.25-36.241c4.17-14.656 10.65-24.179 10.59-26.667-.07-2.486-4.34-33.842-3.09-41.342s8.5-11.428 14.13-12.813z" fill="#F89554"/>
    <path fill-rule="evenodd" clip-rule="evenodd" d="M65.75 94.703s-7.51 1.681-15.33 11.056c-2.69 3.226-12.12 13.75-15.25 16-3.12 2.25-10.9 15.75-10.28 18.625.63 2.875 10.4 17.625 12.28 18.25 1.89.625 8.14-10.875 10.27-14.25 2.12-3.375 3.4-8.834 5.15-10.084 1.75-1.25 5.08-5.666 5.08-5.666s6.25-14 6.63-15.625c.37-1.625 1.45-18.306 1.45-18.306zM91.46 95.333s7.631 3.4 12.801 7.934c5.16 4.533 21.58 14.513 22.33 17.7 1.33 5.667-2.83 9.167-1.83 13.167s.33 14-.67 15.333c-1 1.333-10.08-5.996-15.04-12.248-4.96-6.252-17.59-17.919-17.59-17.919V95.333z" fill="#F89554"/>
    <path fill-rule="evenodd" clip-rule="evenodd" d="M57.741 145.009s6.87 1.375 17.93 1.688c11.06.312 20.38 0 20.38 0l-.09 4.565s-8.29.753-20.54 0-17.89-1.636-17.89-1.636l.21-4.617z" fill="#371005"/>
    <path fill-rule="evenodd" clip-rule="evenodd" d="M90.529 66.3c-.69-2.29-1.35-2.678-1.92-3.083-1.17-.825-4.22.845-5.57.377-1.73-.6-3.28-1.76-4.76-2.83-.52-.37-.97-.9-1.51-1.2.21-.08.42-.15.63-.21.22-.07.21-.37 0-.44-2.33-.774-5.2.627-7.31 1.573-3.33 1.486-6.44 4.018-7.92 7.416-1.53 3.505-.62 7.46 1.58 10.501.85 1.18 1.94 2 1.54 3.74-.21.94-1.03 1.9-1.58 2.68-1.49 2.15-3.46 5.52-2.37 8.25.53 1.33 1.72 1.92 2.82 2.67 1.92 1.29 1.71 1.9 1.63 4.08-.05 1.469.32 3.056 1.55 3.978 1.38 1.029 3.22 1.231 4.86.882 2.64-.559 5.29-2.311 6.78-4.57 1.15-1.75 1.35-4.018 2.84-5.556.95-.986 1.98-1.619 2.47-2.975.43-1.178.16-2.297-.06-3.457.17-.694.36-1.369.76-2.079 1.36-2.488 3.69-4.05 4.43-6.943.43-1.67-1.29-3.464-1.27-5.193.01-.987 0-1.964.93-3.402.26-.404 1.62-3.659 1.45-4.209z" fill="#1F3C4A"/>
    <path fill-rule="evenodd" clip-rule="evenodd" d="M33.589 137.1a.51.51 0 0 1-.47-.315l-1.83-4.633a.5.5 0 1 1 .93-.369l1.83 4.633a.49.49 0 0 1-.28.649.48.48 0 0 1-.18.035zM36.861 152.443c-.2 0-.39-.12-.47-.317l-1.83-4.632a.507.507 0 0 1 .28-.649c.25-.101.55.024.65.281l1.83 4.632a.491.491 0 0 1-.28.65.501.501 0 0 1-.18.035zM46.22 130.366c-.2 0-.39-.12-.46-.316l-1.84-4.632a.504.504 0 0 1 .29-.65c.25-.102.54.025.64.28l1.84 4.633c.1.258-.03.548-.28.65a.531.531 0 0 1-.19.035zM55.728 111.212c-.2 0-.39-.119-.46-.315l-1.84-4.633a.499.499 0 1 1 .93-.368l1.84 4.633a.502.502 0 0 1-.47.683zM65.179 130.366c-.2 0-.39-.12-.47-.316l-1.83-4.632a.5.5 0 0 1 .28-.65c.25-.102.55.025.65.28l1.83 4.633a.5.5 0 0 1-.46.685zM73.021 116.21c-.2 0-.39-.119-.47-.316l-1.83-4.632a.507.507 0 0 1 .28-.649c.25-.102.55.024.65.281l1.83 4.633a.49.49 0 0 1-.28.648.48.48 0 0 1-.18.035zM86.99 107.285c-.2 0-.38-.119-.46-.317l-1.83-4.633a.49.49 0 0 1 .28-.648c.25-.101.54.023.65.281l1.83 4.633c.1.256-.03.547-.28.649a.555.555 0 0 1-.19.035zM84.538 125.295a.51.51 0 0 1-.47-.315l-1.83-4.633a.498.498 0 0 1 .28-.649c.25-.102.55.024.65.28l1.83 4.633a.498.498 0 0 1-.46.684zM93.29 143.431c-.2 0-.39-.12-.46-.316l-1.84-4.633a.505.505 0 0 1 .28-.648c.26-.102.55.023.65.28l1.84 4.633a.504.504 0 0 1-.47.684zM87.849 160.664c-.2 0-.38-.12-.46-.316l-1.83-4.633a.49.49 0 0 1 .28-.649c.25-.1.55.024.65.281l1.83 4.633a.505.505 0 0 1-.47.684zM66.091 158.347c-.2 0-.38-.119-.46-.315l-1.84-4.633a.503.503 0 0 1 .29-.649c.25-.102.54.024.64.281l1.84 4.633c.1.256-.03.546-.28.648a.531.531 0 0 1-.19.035zM57.56 170.428c-.19 0-.38-.12-.46-.315l-1.83-4.633a.489.489 0 0 1 .28-.648c.25-.102.54.023.65.28l1.83 4.632a.498.498 0 0 1-.47.684zM74.95 170.843c-.2 0-.38-.12-.46-.316l-1.83-4.633a.489.489 0 0 1 .28-.648c.25-.103.54.023.65.28l1.83 4.633c.1.257-.03.548-.28.649a.531.531 0 0 1-.19.035zM92.788 175.599c-.2 0-.39-.119-.47-.316l-1.83-4.633a.499.499 0 1 1 .93-.367l1.83 4.633a.498.498 0 0 1-.46.683zM96.958 193.5c-.2 0-.38-.121-.46-.317l-1.83-4.633a.49.49 0 0 1 .28-.648.49.49 0 0 1 .64.281l1.84 4.632a.506.506 0 0 1-.47.685zM82.021 187.025c-.2 0-.39-.119-.46-.316l-1.84-4.633a.504.504 0 0 1 .29-.649c.25-.101.54.024.64.282l1.84 4.632c.1.256-.03.547-.28.649a.554.554 0 0 1-.19.035zM66.67 188.867c-.2 0-.39-.119-.46-.317l-1.84-4.632a.507.507 0 0 1 .28-.649.5.5 0 0 1 .65.281l1.84 4.633a.504.504 0 0 1-.47.684zM50.65 193.5a.51.51 0 0 1-.47-.317l-1.83-4.633a.506.506 0 0 1 .28-.648c.25-.102.55.023.65.281l1.83 4.632a.49.49 0 0 1-.28.649.481.481 0 0 1-.18.036zM76.7 204.369c-.2 0-.39-.119-.46-.316l-1.84-4.633a.504.504 0 0 1 .29-.649c.25-.102.54.024.64.281l1.84 4.633c.1.257-.03.547-.28.649a.532.532 0 0 1-.19.035zM54.81 212.472a.504.504 0 0 1-.46-.316l-1.83-4.632a.49.49 0 0 1 .28-.649c.25-.102.54.024.65.281l1.83 4.633a.498.498 0 0 1-.47.683zM67.01 222.173c-.2 0-.39-.119-.47-.315l-1.83-4.633a.506.506 0 0 1 .28-.649c.25-.102.55.024.65.281l1.83 4.633a.489.489 0 0 1-.28.648.46.46 0 0 1-.18.035zM56.651 240.2c-.2 0-.39-.12-.47-.316l-1.83-4.633a.498.498 0 0 1 .28-.649c.25-.101.55.024.65.28l1.83 4.633a.5.5 0 0 1-.46.685zM44.581 228.052c-.2 0-.39-.12-.47-.316l-1.83-4.633a.497.497 0 0 1 .28-.648c.25-.102.55.023.65.28l1.83 4.633a.498.498 0 0 1-.46.684zM42.299 255.677c-.2 0-.39-.12-.47-.316l-1.83-4.633a.505.505 0 0 1 .28-.648c.25-.102.55.023.65.28l1.83 4.633a.49.49 0 0 1-.28.649.48.48 0 0 1-.18.035zM76.7 141.115c-.2 0-.39-.12-.46-.317l-1.84-4.632a.503.503 0 0 1 .29-.649c.25-.102.54.024.64.28l1.84 4.633c.1.257-.03.548-.28.65a.555.555 0 0 1-.19.035zM99.17 118.527c-.2 0-.39-.119-.46-.317l-1.84-4.631a.504.504 0 0 1 .29-.65c.25-.099.54.025.64.281l1.84 4.633c.1.256-.03.547-.28.649a.554.554 0 0 1-.19.035zM112.381 118.527c-.2 0-.38-.119-.46-.317l-1.84-4.631a.504.504 0 0 1 .29-.65c.25-.099.54.025.64.281l1.84 4.633c.1.256-.03.547-.28.649a.554.554 0 0 1-.19.035zM117.339 137.1a.51.51 0 0 1-.47-.315l-1.83-4.633a.5.5 0 1 1 .93-.369l1.83 4.633a.49.49 0 0 1-.28.649.48.48 0 0 1-.18.035z" fill="#fff"/>
</svg>
